<svg width="148" height="48" viewBox="0 0 148 48" fill="none" xmlns="http://www.w3.org/2000/svg">
<path d="M0 12C0 5.37258 5.37258 0 12 0H136C142.627 0 148 5.37258 148 12V36C148 42.6274 142.627 48 136 48H12C5.37258 48 0 42.6274 0 36V12Z" fill="#1C1C1C"/>
<path d="M33.112 31.828C32.86 31.828 32.636 31.814 32.44 31.786C32.244 31.758 32.076 31.7207 31.936 31.674V30.176C32.0853 30.2133 32.244 30.246 32.412 30.274C32.58 30.302 32.7573 30.316 32.944 30.316C33.1867 30.316 33.406 30.2693 33.602 30.176C33.8073 30.0827 33.9707 29.91 34.092 29.658C34.2133 29.406 34.274 29.0467 34.274 28.58V19.004H36.066V28.538C36.066 29.7047 35.7907 30.5447 35.24 31.058C34.6987 31.5713 33.9893 31.828 33.112 31.828ZM45.2303 25.192C45.2303 26.452 44.9036 27.4273 44.2503 28.118C43.597 28.7993 42.7103 29.14 41.5903 29.14C40.8996 29.14 40.2836 28.986 39.7423 28.678C39.201 28.37 38.7763 27.922 38.4683 27.334C38.1603 26.746 38.0063 26.032 38.0063 25.192C38.0063 23.932 38.3283 22.966 38.9723 22.294C39.6256 21.6127 40.5123 21.272 41.6323 21.272C42.3323 21.272 42.953 21.426 43.4943 21.734C44.0356 22.0327 44.4603 22.476 44.7683 23.064C45.0763 23.6427 45.2303 24.352 45.2303 25.192ZM39.8123 25.192C39.8123 25.9947 39.9523 26.6153 40.2323 27.054C40.5216 27.4927 40.9836 27.712 41.6183 27.712C42.253 27.712 42.7103 27.4927 42.9903 27.054C43.2796 26.6153 43.4243 25.9947 43.4243 25.192C43.4243 24.3893 43.2796 23.7733 42.9903 23.344C42.7103 22.9147 42.2483 22.7 41.6043 22.7C40.979 22.7 40.5216 22.9147 40.2323 23.344C39.9523 23.7733 39.8123 24.3893 39.8123 25.192ZM48.8179 20.88C48.8179 21.1787 48.8086 21.468 48.7899 21.748C48.7713 22.028 48.7526 22.2473 48.7339 22.406H48.8179C49.0233 22.0887 49.3033 21.8227 49.6579 21.608C50.0126 21.384 50.4746 21.272 51.0439 21.272C51.9213 21.272 52.6306 21.6033 53.1719 22.266C53.7226 22.9287 53.9979 23.904 53.9979 25.192C53.9979 26.4987 53.7226 27.4833 53.1719 28.146C52.6213 28.8087 51.8979 29.14 51.0019 29.14C50.4326 29.14 49.9753 29.0373 49.6299 28.832C49.2939 28.6267 49.0233 28.3887 48.8179 28.118H48.6919L48.3699 29H47.0539V18.36H48.8179V20.88ZM50.5399 22.7C49.9053 22.7 49.4619 22.8913 49.2099 23.274C48.9579 23.6567 48.8273 24.2447 48.8179 25.038V25.192C48.8179 26.004 48.9393 26.6247 49.1819 27.054C49.4339 27.4833 49.8959 27.698 50.5679 27.698C51.0906 27.698 51.4919 27.4833 51.7719 27.054C52.0519 26.6153 52.1919 25.99 52.1919 25.178C52.1919 24.3473 52.0473 23.7267 51.7579 23.316C51.4779 22.9053 51.0719 22.7 50.5399 22.7ZM60.9836 26.802C60.9836 27.5673 60.7083 28.1507 60.1576 28.552C59.6163 28.944 58.8369 29.14 57.8196 29.14C57.2876 29.14 56.8303 29.1027 56.4476 29.028C56.0743 28.9533 55.7103 28.8367 55.3556 28.678V27.18C55.7289 27.3573 56.1396 27.5067 56.5876 27.628C57.0449 27.7493 57.4743 27.81 57.8756 27.81C58.3609 27.81 58.7109 27.7353 58.9256 27.586C59.1403 27.4367 59.2476 27.236 59.2476 26.984C59.2476 26.8347 59.2056 26.704 59.1216 26.592C59.0376 26.4707 58.8696 26.34 58.6176 26.2C58.3749 26.06 58.0109 25.8873 57.5256 25.682C57.0403 25.4953 56.6343 25.304 56.3076 25.108C55.9903 24.9027 55.7476 24.6647 55.5796 24.394C55.4209 24.1233 55.3416 23.7733 55.3416 23.344C55.3416 22.6627 55.6076 22.1493 56.1396 21.804C56.6809 21.4493 57.3996 21.272 58.2956 21.272C58.7623 21.272 59.2009 21.3187 59.6116 21.412C60.0316 21.5053 60.4516 21.6453 60.8716 21.832L60.3116 23.134C59.9569 22.9847 59.6116 22.8587 59.2756 22.756C58.9396 22.6533 58.5943 22.602 58.2396 22.602C57.4649 22.602 57.0776 22.8213 57.0776 23.26C57.0776 23.4187 57.1243 23.554 57.2176 23.666C57.3203 23.778 57.4929 23.8993 57.7356 24.03C57.9876 24.1513 58.3423 24.3007 58.7996 24.478C59.2476 24.6553 59.6349 24.842 59.9616 25.038C60.2883 25.2247 60.5403 25.458 60.7176 25.738C60.8949 26.018 60.9836 26.3727 60.9836 26.802ZM74.4656 29H72.6736V24.562H68.2776V29H66.4856V19.004H68.2776V23.036H72.6736V19.004H74.4656V29ZM77.7816 18.486C78.0523 18.486 78.281 18.556 78.4676 18.696C78.6636 18.8267 78.7616 19.0647 78.7616 19.41C78.7616 19.7553 78.6636 19.998 78.4676 20.138C78.281 20.278 78.0523 20.348 77.7816 20.348C77.511 20.348 77.2776 20.278 77.0816 20.138C76.895 19.998 76.8016 19.7553 76.8016 19.41C76.8016 19.0647 76.895 18.8267 77.0816 18.696C77.2776 18.556 77.511 18.486 77.7816 18.486ZM78.6636 21.412V29H76.8996V21.412H78.6636ZM86.0852 26.802C86.0852 27.5673 85.8098 28.1507 85.2592 28.552C84.7178 28.944 83.9385 29.14 82.9212 29.14C82.3892 29.14 81.9318 29.1027 81.5492 29.028C81.1758 28.9533 80.8118 28.8367 80.4572 28.678V27.18C80.8305 27.3573 81.2412 27.5067 81.6892 27.628C82.1465 27.7493 82.5758 27.81 82.9772 27.81C83.4625 27.81 83.8125 27.7353 84.0272 27.586C84.2418 27.4367 84.3492 27.236 84.3492 26.984C84.3492 26.8347 84.3072 26.704 84.2232 26.592C84.1392 26.4707 83.9712 26.34 83.7192 26.2C83.4765 26.06 83.1125 25.8873 82.6272 25.682C82.1418 25.4953 81.7358 25.304 81.4092 25.108C81.0918 24.9027 80.8492 24.6647 80.6812 24.394C80.5225 24.1233 80.4432 23.7733 80.4432 23.344C80.4432 22.6627 80.7092 22.1493 81.2412 21.804C81.7825 21.4493 82.5012 21.272 83.3972 21.272C83.8638 21.272 84.3025 21.3187 84.7132 21.412C85.1332 21.5053 85.5532 21.6453 85.9732 21.832L85.4132 23.134C85.0585 22.9847 84.7132 22.8587 84.3772 22.756C84.0412 22.6533 83.6958 22.602 83.3412 22.602C82.5665 22.602 82.1792 22.8213 82.1792 23.26C82.1792 23.4187 82.2258 23.554 82.3192 23.666C82.4218 23.778 82.5945 23.8993 82.8372 24.03C83.0892 24.1513 83.4438 24.3007 83.9012 24.478C84.3492 24.6553 84.7365 24.842 85.0632 25.038C85.3898 25.2247 85.6418 25.458 85.8192 25.738C85.9965 26.018 86.0852 26.3727 86.0852 26.802ZM90.7224 27.726C90.9371 27.726 91.1471 27.7073 91.3524 27.67C91.5671 27.6233 91.7631 27.572 91.9404 27.516V28.832C91.7538 28.916 91.5111 28.986 91.2124 29.042C90.9138 29.1073 90.6011 29.14 90.2744 29.14C89.8451 29.14 89.4531 29.07 89.0984 28.93C88.7438 28.7807 88.4638 28.5287 88.2584 28.174C88.0531 27.8193 87.9504 27.3247 87.9504 26.69V22.742H86.9284V21.972L88.0484 21.356L88.6084 19.746H89.7144V21.412H91.8704V22.742H89.7144V26.676C89.7144 27.0307 89.8078 27.2967 89.9944 27.474C90.1811 27.642 90.4238 27.726 90.7224 27.726ZM100.246 25.192C100.246 26.452 99.9193 27.4273 99.2659 28.118C98.6126 28.7993 97.7259 29.14 96.6059 29.14C95.9153 29.14 95.2993 28.986 94.7579 28.678C94.2166 28.37 93.7919 27.922 93.4839 27.334C93.1759 26.746 93.0219 26.032 93.0219 25.192C93.0219 23.932 93.3439 22.966 93.9879 22.294C94.6413 21.6127 95.5279 21.272 96.6479 21.272C97.3479 21.272 97.9686 21.426 98.5099 21.734C99.0513 22.0327 99.4759 22.476 99.7839 23.064C100.092 23.6427 100.246 24.352 100.246 25.192ZM94.8279 25.192C94.8279 25.9947 94.9679 26.6153 95.2479 27.054C95.5373 27.4927 95.9993 27.712 96.6339 27.712C97.2686 27.712 97.7259 27.4927 98.0059 27.054C98.2953 26.6153 98.4399 25.9947 98.4399 25.192C98.4399 24.3893 98.2953 23.7733 98.0059 23.344C97.7259 22.9147 97.2639 22.7 96.6199 22.7C95.9946 22.7 95.5373 22.9147 95.2479 23.344C94.9679 23.7733 94.8279 24.3893 94.8279 25.192ZM106.046 21.272C106.167 21.272 106.298 21.2767 106.438 21.286C106.587 21.2953 106.713 21.314 106.816 21.342L106.662 22.98C106.568 22.9613 106.456 22.9473 106.326 22.938C106.195 22.9193 106.078 22.91 105.976 22.91C105.602 22.91 105.252 22.9893 104.926 23.148C104.599 23.2973 104.333 23.5353 104.128 23.862C103.932 24.1793 103.834 24.5807 103.834 25.066V29H102.07V21.412H103.428L103.68 22.728H103.764C103.988 22.3267 104.296 21.986 104.688 21.706C105.08 21.4167 105.532 21.272 106.046 21.272ZM107.088 21.412H109.006L110.518 25.696C110.621 25.9667 110.705 26.2327 110.77 26.494C110.835 26.7553 110.882 27.0213 110.91 27.292H110.966C111.003 27.0587 111.059 26.802 111.134 26.522C111.209 26.242 111.293 25.9667 111.386 25.696L112.842 21.412H114.746L111.512 30.008C111.223 30.764 110.826 31.3427 110.322 31.744C109.827 32.1547 109.216 32.36 108.488 32.36C108.255 32.36 108.054 32.346 107.886 32.318C107.718 32.2993 107.569 32.276 107.438 32.248V30.848C107.541 30.8667 107.662 30.8853 107.802 30.904C107.951 30.9227 108.105 30.932 108.264 30.932C108.703 30.932 109.048 30.8013 109.3 30.54C109.561 30.288 109.762 29.9707 109.902 29.588L110.126 28.972L107.088 21.412Z" fill="white"/>
</svg>
