<svg width="128" height="48" viewBox="0 0 128 48" fill="none" xmlns="http://www.w3.org/2000/svg">
<path d="M0 12C0 5.37258 5.37258 0 12 0H116C122.627 0 128 5.37258 128 12V36C128 42.6274 122.627 48 116 48H12C5.37258 48 0 42.6274 0 36V12Z" fill="#1C1C1C"/>
<path d="M28.312 19.004C29.6093 19.004 30.5893 19.1907 31.252 19.564C31.924 19.9373 32.26 20.586 32.26 21.51C32.26 22.0887 32.1153 22.574 31.826 22.966C31.5367 23.358 31.1213 23.6007 30.58 23.694V23.764C30.944 23.8293 31.2753 23.9507 31.574 24.128C31.8727 24.296 32.106 24.5433 32.274 24.87C32.4513 25.1873 32.54 25.6073 32.54 26.13C32.54 27.0353 32.218 27.74 31.574 28.244C30.9393 28.748 30.0667 29 28.956 29H25.302V19.004H28.312ZM28.55 23.078C29.2593 23.078 29.7447 22.966 30.006 22.742C30.2767 22.518 30.412 22.1867 30.412 21.748C30.412 21.3 30.2487 20.978 29.922 20.782C29.6047 20.586 29.1007 20.488 28.41 20.488H27.094V23.078H28.55ZM27.094 24.52V27.502H28.718C29.446 27.502 29.95 27.362 30.23 27.082C30.5193 26.802 30.664 26.4287 30.664 25.962C30.664 25.5327 30.5147 25.1873 30.216 24.926C29.9267 24.6553 29.3993 24.52 28.634 24.52H27.094ZM41.1649 21.412V29H39.7789L39.5409 28.02H39.4569C39.2049 28.412 38.8642 28.6967 38.4349 28.874C38.0149 29.0513 37.5669 29.14 37.0909 29.14C36.2415 29.14 35.5742 28.9207 35.0889 28.482C34.6129 28.0433 34.3749 27.3387 34.3749 26.368V21.412H36.1389V26.018C36.1389 27.1473 36.6055 27.712 37.5389 27.712C38.2482 27.712 38.7335 27.4927 38.9949 27.054C39.2655 26.606 39.4009 25.962 39.4009 25.122V21.412H41.1649ZM46.3533 27.726C46.568 27.726 46.778 27.7073 46.9833 27.67C47.198 27.6233 47.394 27.572 47.5713 27.516V28.832C47.3846 28.916 47.142 28.986 46.8433 29.042C46.5446 29.1073 46.232 29.14 45.9053 29.14C45.476 29.14 45.084 29.07 44.7293 28.93C44.3746 28.7807 44.0946 28.5287 43.8893 28.174C43.684 27.8193 43.5813 27.3247 43.5813 26.69V22.742H42.5593V21.972L43.6793 21.356L44.2393 19.746H45.3453V21.412H47.5013V22.742H45.3453V26.676C45.3453 27.0307 45.4386 27.2967 45.6253 27.474C45.812 27.642 46.0546 27.726 46.3533 27.726ZM52.0408 27.726C52.2555 27.726 52.4655 27.7073 52.6708 27.67C52.8855 27.6233 53.0815 27.572 53.2588 27.516V28.832C53.0721 28.916 52.8295 28.986 52.5308 29.042C52.2321 29.1073 51.9195 29.14 51.5928 29.14C51.1635 29.14 50.7715 29.07 50.4168 28.93C50.0621 28.7807 49.7821 28.5287 49.5768 28.174C49.3715 27.8193 49.2688 27.3247 49.2688 26.69V22.742H48.2468V21.972L49.3668 21.356L49.9268 19.746H51.0328V21.412H53.1888V22.742H51.0328V26.676C51.0328 27.0307 51.1261 27.2967 51.3128 27.474C51.4995 27.642 51.7421 27.726 52.0408 27.726ZM61.5643 25.192C61.5643 26.452 61.2376 27.4273 60.5843 28.118C59.931 28.7993 59.0443 29.14 57.9243 29.14C57.2336 29.14 56.6176 28.986 56.0763 28.678C55.535 28.37 55.1103 27.922 54.8023 27.334C54.4943 26.746 54.3403 26.032 54.3403 25.192C54.3403 23.932 54.6623 22.966 55.3063 22.294C55.9596 21.6127 56.8463 21.272 57.9663 21.272C58.6663 21.272 59.287 21.426 59.8283 21.734C60.3696 22.0327 60.7943 22.476 61.1023 23.064C61.4103 23.6427 61.5643 24.352 61.5643 25.192ZM56.1463 25.192C56.1463 25.9947 56.2863 26.6153 56.5663 27.054C56.8556 27.4927 57.3176 27.712 57.9523 27.712C58.587 27.712 59.0443 27.4927 59.3243 27.054C59.6136 26.6153 59.7583 25.9947 59.7583 25.192C59.7583 24.3893 59.6136 23.7733 59.3243 23.344C59.0443 22.9147 58.5823 22.7 57.9383 22.7C57.313 22.7 56.8556 22.9147 56.5663 23.344C56.2863 23.7733 56.1463 24.3893 56.1463 25.192ZM67.4479 21.272C68.2972 21.272 68.9599 21.4913 69.4359 21.93C69.9212 22.3687 70.1639 23.078 70.1639 24.058V29H68.3999V24.408C68.3999 23.2693 67.9332 22.7 66.9999 22.7C66.2906 22.7 65.8052 22.924 65.5439 23.372C65.2826 23.82 65.1519 24.4593 65.1519 25.29V29H63.3879V21.412H64.7459L64.9979 22.406H65.0959C65.3386 22.014 65.6699 21.7293 66.0899 21.552C66.5192 21.3653 66.9719 21.272 67.4479 21.272ZM79.759 29H77.967V20.516H75.097V19.004H82.629V20.516H79.759V29ZM86.059 21.272C87.0764 21.272 87.879 21.5753 88.467 22.182C89.0644 22.7887 89.363 23.6333 89.363 24.716V25.612H84.351C84.3697 26.3027 84.561 26.8393 84.925 27.222C85.289 27.5953 85.793 27.782 86.437 27.782C86.9224 27.782 87.361 27.7353 87.753 27.642C88.145 27.5393 88.5464 27.3947 88.957 27.208V28.622C88.5837 28.7993 88.1964 28.93 87.795 29.014C87.3937 29.098 86.913 29.14 86.353 29.14C85.6157 29.14 84.9577 29 84.379 28.72C83.8097 28.4307 83.3617 27.9967 83.035 27.418C82.7177 26.8393 82.559 26.1207 82.559 25.262C82.559 23.9647 82.881 22.9753 83.525 22.294C84.169 21.6127 85.0137 21.272 86.059 21.272ZM86.059 22.574C85.583 22.574 85.1957 22.728 84.897 23.036C84.6077 23.3347 84.4397 23.7827 84.393 24.38H87.655C87.6457 23.8573 87.5104 23.428 87.249 23.092C86.997 22.7467 86.6004 22.574 86.059 22.574ZM92.5064 25.122L90.0004 21.412H92.0024L93.6544 23.988L95.3064 21.412H97.3084L94.7744 25.122L97.4344 29H95.4324L93.6544 26.242L91.8764 29H89.8744L92.5064 25.122ZM101.642 27.726C101.857 27.726 102.067 27.7073 102.272 27.67C102.487 27.6233 102.683 27.572 102.86 27.516V28.832C102.674 28.916 102.431 28.986 102.132 29.042C101.834 29.1073 101.521 29.14 101.194 29.14C100.765 29.14 100.373 29.07 100.018 28.93C99.6637 28.7807 99.3837 28.5287 99.1784 28.174C98.973 27.8193 98.8704 27.3247 98.8704 26.69V22.742H97.8484V21.972L98.9684 21.356L99.5284 19.746H100.634V21.412H102.79V22.742H100.634V26.676C100.634 27.0307 100.728 27.2967 100.914 27.474C101.101 27.642 101.344 27.726 101.642 27.726Z" fill="white"/>
</svg>
