<svg width="148" height="48" viewBox="0 0 148 48" fill="none" xmlns="http://www.w3.org/2000/svg">
<path d="M30.312 19.004C31.6093 19.004 32.5893 19.1907 33.252 19.564C33.924 19.9373 34.26 20.586 34.26 21.51C34.26 22.0887 34.1153 22.574 33.826 22.966C33.5367 23.358 33.1213 23.6007 32.58 23.694V23.764C32.944 23.8293 33.2753 23.9507 33.574 24.128C33.8727 24.296 34.106 24.5433 34.274 24.87C34.4513 25.1873 34.54 25.6073 34.54 26.13C34.54 27.0353 34.218 27.74 33.574 28.244C32.9393 28.748 32.0667 29 30.956 29H27.302V19.004H30.312ZM30.55 23.078C31.2593 23.078 31.7447 22.966 32.006 22.742C32.2767 22.518 32.412 22.1867 32.412 21.748C32.412 21.3 32.2487 20.978 31.922 20.782C31.6047 20.586 31.1007 20.488 30.41 20.488H29.094V23.078H30.55ZM29.094 24.52V27.502H30.718C31.446 27.502 31.95 27.362 32.23 27.082C32.5193 26.802 32.664 26.4287 32.664 25.962C32.664 25.5327 32.5147 25.1873 32.216 24.926C31.9267 24.6553 31.3993 24.52 30.634 24.52H29.094ZM39.4549 21.272C40.4349 21.272 41.1769 21.4867 41.6809 21.916C42.1942 22.3453 42.4509 23.008 42.4509 23.904V29H41.2049L40.8549 27.95H40.7989C40.4722 28.3607 40.1269 28.664 39.7629 28.86C39.3989 29.0467 38.9042 29.14 38.2789 29.14C37.5975 29.14 37.0329 28.9487 36.5849 28.566C36.1369 28.1833 35.9129 27.5907 35.9129 26.788C35.9129 26.004 36.1975 25.416 36.7669 25.024C37.3455 24.632 38.2182 24.4127 39.3849 24.366L40.7009 24.324V23.946C40.7009 23.47 40.5842 23.1293 40.3509 22.924C40.1175 22.7093 39.7909 22.602 39.3709 22.602C38.9882 22.602 38.6195 22.658 38.2649 22.77C37.9195 22.882 37.5742 23.0127 37.2289 23.162L36.6689 21.93C37.0422 21.734 37.4669 21.5753 37.9429 21.454C38.4282 21.3327 38.9322 21.272 39.4549 21.272ZM39.7769 25.444C39.0022 25.472 38.4655 25.6073 38.1669 25.85C37.8682 26.0833 37.7189 26.4007 37.7189 26.802C37.7189 27.166 37.8215 27.4273 38.0269 27.586C38.2415 27.7353 38.5215 27.81 38.8669 27.81C39.3802 27.81 39.8142 27.6653 40.1689 27.376C40.5235 27.0773 40.7009 26.6387 40.7009 26.06V25.416L39.7769 25.444ZM47.7273 29.14C46.6353 29.14 45.7767 28.8273 45.1513 28.202C44.526 27.5767 44.2133 26.592 44.2133 25.248C44.2133 24.3147 44.3673 23.5587 44.6753 22.98C44.9927 22.392 45.4267 21.9627 45.9773 21.692C46.528 21.412 47.158 21.272 47.8673 21.272C48.3433 21.272 48.768 21.3187 49.1413 21.412C49.5147 21.5053 49.832 21.6173 50.0933 21.748L49.5753 23.134C49.286 23.022 48.9967 22.9287 48.7073 22.854C48.418 22.77 48.138 22.728 47.8673 22.728C46.6353 22.728 46.0193 23.5633 46.0193 25.234C46.0193 26.046 46.1733 26.6573 46.4813 27.068C46.7987 27.4787 47.2513 27.684 47.8393 27.684C48.2593 27.684 48.6327 27.6327 48.9593 27.53C49.286 27.4273 49.5987 27.2873 49.8973 27.11V28.636C49.608 28.804 49.2953 28.93 48.9593 29.014C48.6327 29.098 48.222 29.14 47.7273 29.14ZM53.425 23.414C53.425 23.6567 53.4157 23.9133 53.397 24.184C53.3783 24.4547 53.3597 24.7113 53.341 24.954H53.383C53.495 24.786 53.635 24.5947 53.803 24.38C53.971 24.1653 54.1297 23.974 54.279 23.806L56.519 21.412H58.521L55.483 24.688L58.717 29H56.659L54.307 25.752L53.425 26.48V29H51.675V18.36H53.425V23.414ZM66.4822 27.726C66.6969 27.726 66.9069 27.7073 67.1122 27.67C67.3269 27.6233 67.5229 27.572 67.7002 27.516V28.832C67.5135 28.916 67.2709 28.986 66.9722 29.042C66.6735 29.1073 66.3609 29.14 66.0342 29.14C65.6049 29.14 65.2129 29.07 64.8582 28.93C64.5035 28.7807 64.2235 28.5287 64.0182 28.174C63.8129 27.8193 63.7102 27.3247 63.7102 26.69V22.742H62.6882V21.972L63.8082 21.356L64.3682 19.746H65.4742V21.412H67.6302V22.742H65.4742V26.676C65.4742 27.0307 65.5675 27.2967 65.7542 27.474C65.9409 27.642 66.1835 27.726 66.4822 27.726ZM76.0057 25.192C76.0057 26.452 75.679 27.4273 75.0257 28.118C74.3724 28.7993 73.4857 29.14 72.3657 29.14C71.675 29.14 71.059 28.986 70.5177 28.678C69.9764 28.37 69.5517 27.922 69.2437 27.334C68.9357 26.746 68.7817 26.032 68.7817 25.192C68.7817 23.932 69.1037 22.966 69.7477 22.294C70.401 21.6127 71.2877 21.272 72.4077 21.272C73.1077 21.272 73.7284 21.426 74.2697 21.734C74.811 22.0327 75.2357 22.476 75.5437 23.064C75.8517 23.6427 76.0057 24.352 76.0057 25.192ZM70.5877 25.192C70.5877 25.9947 70.7277 26.6153 71.0077 27.054C71.297 27.4927 71.759 27.712 72.3937 27.712C73.0284 27.712 73.4857 27.4927 73.7657 27.054C74.055 26.6153 74.1997 25.9947 74.1997 25.192C74.1997 24.3893 74.055 23.7733 73.7657 23.344C73.4857 22.9147 73.0237 22.7 72.3797 22.7C71.7544 22.7 71.297 22.9147 71.0077 23.344C70.7277 23.7733 70.5877 24.3893 70.5877 25.192ZM89.614 29H87.822V24.562H83.426V29H81.634V19.004H83.426V23.036H87.822V19.004H89.614V29ZM98.8241 25.192C98.8241 26.452 98.4974 27.4273 97.8441 28.118C97.1907 28.7993 96.3041 29.14 95.1841 29.14C94.4934 29.14 93.8774 28.986 93.3361 28.678C92.7947 28.37 92.3701 27.922 92.0621 27.334C91.7541 26.746 91.6001 26.032 91.6001 25.192C91.6001 23.932 91.9221 22.966 92.5661 22.294C93.2194 21.6127 94.1061 21.272 95.2261 21.272C95.9261 21.272 96.5467 21.426 97.0881 21.734C97.6294 22.0327 98.0541 22.476 98.3621 23.064C98.6701 23.6427 98.8241 24.352 98.8241 25.192ZM93.4061 25.192C93.4061 25.9947 93.5461 26.6153 93.8261 27.054C94.1154 27.4927 94.5774 27.712 95.2121 27.712C95.8467 27.712 96.3041 27.4927 96.5841 27.054C96.8734 26.6153 97.0181 25.9947 97.0181 25.192C97.0181 24.3893 96.8734 23.7733 96.5841 23.344C96.3041 22.9147 95.8421 22.7 95.1981 22.7C94.5727 22.7 94.1154 22.9147 93.8261 23.344C93.5461 23.7733 93.4061 24.3893 93.4061 25.192ZM109.342 21.272C110.2 21.272 110.844 21.4913 111.274 21.93C111.712 22.3687 111.932 23.078 111.932 24.058V29H110.168V24.394C110.168 23.2647 109.738 22.7 108.88 22.7C108.264 22.7 107.825 22.9007 107.564 23.302C107.302 23.7033 107.172 24.2867 107.172 25.052V29H105.408V24.394C105.408 23.2647 104.974 22.7 104.106 22.7C103.462 22.7 103.018 22.924 102.776 23.372C102.533 23.82 102.412 24.4593 102.412 25.29V29H100.648V21.412H102.006L102.258 22.406H102.356C102.58 22.014 102.892 21.7293 103.294 21.552C103.704 21.3653 104.129 21.272 104.568 21.272C105.137 21.272 105.613 21.37 105.996 21.566C106.388 21.7527 106.686 22.0467 106.892 22.448H107.032C107.265 22.0373 107.592 21.7387 108.012 21.552C108.432 21.3653 108.875 21.272 109.342 21.272ZM117.194 21.272C118.211 21.272 119.014 21.5753 119.602 22.182C120.199 22.7887 120.498 23.6333 120.498 24.716V25.612H115.486C115.504 26.3027 115.696 26.8393 116.06 27.222C116.424 27.5953 116.928 27.782 117.572 27.782C118.057 27.782 118.496 27.7353 118.888 27.642C119.28 27.5393 119.681 27.3947 120.092 27.208V28.622C119.718 28.7993 119.331 28.93 118.93 29.014C118.528 29.098 118.048 29.14 117.488 29.14C116.75 29.14 116.092 29 115.514 28.72C114.944 28.4307 114.496 27.9967 114.17 27.418C113.852 26.8393 113.694 26.1207 113.694 25.262C113.694 23.9647 114.016 22.9753 114.66 22.294C115.304 21.6127 116.148 21.272 117.194 21.272ZM117.194 22.574C116.718 22.574 116.33 22.728 116.032 23.036C115.742 23.3347 115.574 23.7827 115.528 24.38H118.79C118.78 23.8573 118.645 23.428 118.384 23.092C118.132 22.7467 117.735 22.574 117.194 22.574Z" fill="#1C1C1C"/>
<path d="M12 1H136V-1H12V1ZM147 12V36H149V12H147ZM136 47H12V49H136V47ZM1 36V12H-1V36H1ZM12 47C5.92487 47 1 42.0751 1 36H-1C-1 43.1797 4.8203 49 12 49V47ZM147 36C147 42.0751 142.075 47 136 47V49C143.18 49 149 43.1797 149 36H147ZM136 1C142.075 1 147 5.92487 147 12H149C149 4.8203 143.18 -1 136 -1V1ZM12 -1C4.8203 -1 -1 4.8203 -1 12H1C1 5.92487 5.92487 1 12 1V-1Z" fill="#EAEAEA"/>
</svg>
